<svg width="490" height="490" xmlns="http://www.w3.org/2000/svg" xml:space="preserve" version="1.1">

 <g>
  <title>Layer 1</title>
  <g id="svg_2">
   <g id="XMLID_39_">
    <g id="svg_3"/>
    <path id="svg_6" fill="#231F20" d="m441,10c0,-5.523 -4.477,-10 -10,-10l-360,0c-5.523,0 -10,4.477 -10,10l0,470c0,5.523 4.477,10 10,10l279.987,0c0.003,0 0.007,0 0.01,0c2.603,0 5.161,-1.017 7.074,-2.929l80,-80c1.912,-1.913 2.904,-4.47 2.905,-7.071l0.024,0l0,-390zm-90,380c-5.523,0 -10,4.477 -10,10l0,70l-260,0l0,-450l340,0l0,370l-70,0zm10,65.858l0,-45.858l45.858,0l-45.858,45.858z"/>
   </g>
  </g>
  <g id="svg_7">
   <rect id="svg_8" fill="#231F20" height="20" width="80" y="50" x="116"/>
  </g>
  <g id="svg_9">
   <rect id="svg_10" fill="#231F20" height="20" width="130" y="80" x="116"/>
  </g>
  <g id="svg_14">
   <rect id="svg_15" fill="#231F20" height="20" width="25" y="184" x="120"/>
  </g>
  <g id="svg_16">
   <rect id="svg_17" fill="#231F20" height="20" width="25" y="215" x="121"/>
  </g>
  <g id="svg_18">
   <rect id="svg_19" fill="#231F20" height="20" width="25" y="246" x="122"/>
  </g>
  <g id="svg_38">
   <rect id="svg_37" fill="#231F20" height="20" width="131" y="184" x="156"/>
  </g>
  <g id="svg_40">
   <rect id="svg_39" fill="#231F20" height="20" width="80" y="184" x="297"/>
  </g>
  <g id="svg_42">
   <rect id="svg_41" fill="#231F20" height="20" width="131" y="216" x="156"/>
  </g>
  <g id="svg_44">
   <rect id="svg_43" fill="#231F20" height="20" width="80" y="216" x="297"/>
  </g>
  <g id="svg_46">
   <rect id="svg_45" fill="#231F20" height="20" width="131" y="246" x="157"/>
  </g>
  <g id="svg_48">
   <rect id="svg_47" fill="#231F20" height="20" width="80" y="246" x="298"/>
  </g>
  <g id="svg_50">
   <rect id="svg_49" fill="#231F20" height="20" width="80" y="275" x="298"/>
  </g>
  <g id="svg_52">
   <rect id="svg_51" fill="#231F20" height="20" width="80" y="306" x="298"/>
  </g>
  <g id="svg_20"/>
  <g id="svg_21"/>
  <g id="svg_22"/>
  <g id="svg_23"/>
  <g id="svg_24"/>
  <g id="svg_25"/>
  <g id="svg_26"/>
  <g id="svg_27"/>
  <g id="svg_28"/>
  <g id="svg_29"/>
  <g id="svg_30"/>
  <g id="svg_31"/>
  <g id="svg_32"/>
  <g id="svg_33"/>
  <g id="svg_34"/>
  <g>
   <g>
    <g>
     <rect height="8" width="8" y="46" x="316"/>
    </g>
   </g>
   <g>
    <g>
     <path d="m364,38l0,4l-4,0l0,4l4,0l0,16l4,0l0,4l-4,0l0,4l4,0l4,0l0,-8l12,0l0,4l4,0l0,-4l0,-24l-24,0zm20,20l-16,0l0,-16l16,0l0,16z"/>
    </g>
   </g>
   <g>
    <g>
     <rect height="8" width="8" y="46" x="372"/>
    </g>
   </g>
   <g>
    <g>
     <rect height="8" width="8" y="102" x="316"/>
    </g>
   </g>
   <g>
    <g>
     <rect height="4" width="4" y="94" x="364"/>
    </g>
   </g>
   <g>
    <g>
     <rect height="4" width="4" y="114" x="344"/>
    </g>
   </g>
   <g>
    <g>
     <rect height="4" width="4" y="98" x="348"/>
    </g>
   </g>
   <g>
    <g>
     <rect height="4" width="4" y="106" x="348"/>
    </g>
   </g>
   <g>
    <g>
     <rect height="4" width="4" y="86" x="384"/>
    </g>
   </g>
   <g>
    <g>
     <rect x="308" height="4" width="4" y="86"/>
    </g>
   </g>
   <g>
    <g>
     <rect x="308" height="4" width="4" y="66"/>
    </g>
   </g>
   <g>
    <g>
     <polygon points="351.9999789968788,41.999994649576365 351.9999789968788,45.99998655733907 344.00002171837696,45.99998655733907 344.00002171837696,50.00000500212536 356.00001071017687,50.00000500212536 356.00001071017687,45.99998655733907 356.00001071017687,41.999994649576365 "/>
    </g>
   </g>
   <g>
    <g>
     <path d="m384,70l0,4l-8,0l0,4l-12,0l0,-4l-4,0l0,4l-8,0l0,4l12,0l0,4l-8,0l-4,0l0,-4l-4,0l0,4l-4,0l0,-4l-4,0l0,4l-4,0l0,4l8,0l0,4l4,0l0,-4l8,0l0,4l-4,0l0,4l4,0l0,8l4,0l0,4l4,0l0,-4l12,0l0,-8l4,0l0,-4l-4,0l0,-8l-8,0l0,-4l8,0l0,4l4,0l0,-4l4,0l0,-4l4,0l0,-4l0,-4l-4,0zm-12,20l0,12l-12,0l0,-12l12,0z"/>
    </g>
   </g>
   <g>
    <g>
     <polygon points="359.9999893494278,61.99999399392527 356.00001071017687,61.99999399392527 356.00001071017687,65.99998590168798 351.9999789968788,65.99998590168798 351.9999789968788,70.00000434647427 351.9999789968788,73.99999625423698 356.00001071017687,73.99999625423698 356.00001071017687,70.00000434647427 359.9999893494278,70.00000434647427 359.9999893494278,65.99998590168798 364.00002106272586,65.99998590168798 364.00002106272586,61.99999399392527 "/>
    </g>
   </g>
   <g>
    <g>
     <rect height="4" width="8" y="114" x="352"/>
    </g>
   </g>
   <g>
    <g>
     <rect height="4" width="4" y="42" x="340"/>
    </g>
   </g>
   <g>
    <g>
     <rect height="4" width="4" y="70" x="372"/>
    </g>
   </g>
   <g>
    <g>
     <rect height="4" width="4" y="66" x="376"/>
    </g>
   </g>
   <g>
    <g>
     <rect height="4" width="4" y="86" x="324"/>
    </g>
   </g>
   <g>
    <g>
     <path d="m332,114l0,-16l4,0l0,-4l0,-4l-4,0l0,4l-12,0l0,-4l-4,0l-4,0l0,4l-4,0l0,24l24,0l8,0l0,-4l-8,0zm-4,0l-16,0l0,-16l16,0l0,16z"/>
    </g>
   </g>
   <g>
    <g>
     <rect height="4" width="4" y="62" x="332"/>
    </g>
   </g>
   <g>
    <g>
     <path d="m336,38l-4,0l-24,0l0,24l4,0l0,4l4,0l0,-4l4,0l0,4l4,0l0,-4l8,0l0,-8l4,0l0,-4l-4,0l0,-8l4,0l4,0l0,-4l-4,0zm-8,20l-16,0l0,-16l16,0l0,16z"/>
    </g>
   </g>
   <g>
    <g>
     <rect height="4" width="4" y="50" x="356"/>
    </g>
   </g>
   <g>
    <g>
     <rect y="38" height="4" width="4" x="348"/>
    </g>
   </g>
   <g>
    <g>
     <path d="m356,62l0,-4l-4,0l0,-4l-4,0l0,4l-8,0l0,-4l-4,0l0,4l0,4l4,0l0,8l-12,0l0,-4l-4,0l0,4l-12,0l0,4l8,0l0,4l-12,0l0,4l12,0l0,4l4,0l0,-4l4,0l0,4l4,0l0,-4l8,0l0,-4l-4,0l0,-4l4,0l4,0l0,4l4,0l4,0l0,-4l-4,0l0,-4l-4,0l0,-8l12,0zm-24,16l-8,0l0,-4l8,0l0,4z"/>
    </g>
   </g>
   <g>
    <g>
     <polygon points="344.00002171837696,102.00000595113488 344.00002171837696,98.00000077486038 344.00002171837696,93.99999559858588 339.99999000507887,93.99999559858588 339.99999000507887,98.00000077486038 336.00001136582796,98.00000077486038 336.00001136582796,102.00000595113488 339.99999000507887,102.00000595113488 339.99999000507887,105.9999845903858 336.00001136582796,105.9999845903858 336.00001136582796,109.99998976666029 344.00002171837696,109.99998976666029 344.00002171837696,105.9999845903858 348.00000035762787,105.9999845903858 348.00000035762787,102.00000595113488 "/>
    </g>
   </g>
   <g>
    <g>
     <polygon points="380.0000152308003,109.99998976666029 380.0000152308003,105.9999845903858 375.9999835175022,105.9999845903858 375.9999835175022,109.99998976666029 364.00002106272586,109.99998976666029 364.00002106272586,114.00002147995838 372.0000048782513,114.00002147995838 372.0000048782513,118.00000011920929 375.9999835175022,118.00000011920929 375.9999835175022,114.00002147995838 383.9999938700512,114.00002147995838 383.9999938700512,118.00000011920929 387.9999990463257,118.00000011920929 387.9999990463257,114.00002147995838 387.9999990463257,109.99998976666029 "/>
    </g>
   </g>
   <g>
    <g>
     <polygon points="383.9999938700512,93.99999559858588 383.9999938700512,98.00000077486038 380.0000152308003,98.00000077486038 380.0000152308003,102.00000595113488 387.9999990463257,102.00000595113488 387.9999990463257,98.00000077486038 387.9999990463257,93.99999559858588 "/>
    </g>
   </g>
   <g/>
   <g/>
   <g/>
   <g/>
   <g/>
   <g/>
   <g/>
   <g/>
   <g/>
   <g/>
   <g/>
   <g/>
   <g/>
   <g/>
   <g/>
  </g>
  <text font-weight="bold" xml:space="preserve" text-anchor="start" font-family="Noto Sans JP" font-size="64" stroke-width="0" id="svg_53" y="451" x="84" fill="#000000">&lt; CFDi &gt;</text>
 </g>
</svg>