<svg width="490" height="490" xmlns="http://www.w3.org/2000/svg" version="1.1" xml:space="preserve">
 <g>
  <title>Layer 1</title>
  <g id="svg_2">
   <g id="XMLID_39_">
    <g id="svg_3"/>
    <path d="m441,10c0,-5.523 -4.477,-10 -10,-10l-360,0c-5.523,0 -10,4.477 -10,10l0,470c0,5.523 4.477,10 10,10l279.987,0c0.003,0 0.007,0 0.01,0c2.603,0 5.161,-1.017 7.074,-2.929l80,-80c1.912,-1.913 2.904,-4.47 2.905,-7.071l0.024,0l0,-390zm-90,380c-5.523,0 -10,4.477 -10,10l0,70l-260,0l0,-450l340,0l0,370l-70,0zm10,65.858l0,-45.858l45.858,0l-45.858,45.858z" fill="#231F20" id="svg_6"/>
   </g>
  </g>
  <g id="svg_7">
   <rect x="116" y="50" width="80" height="20" fill="#231F20" id="svg_8"/>
  </g>
  <g id="svg_9">
   <rect x="116" y="80" width="130" height="20" fill="#231F20" id="svg_10"/>
  </g>
  <g id="svg_14">
   <rect x="120" y="142" width="25" height="20" fill="#231F20" id="svg_15"/>
  </g>
  <g id="svg_16">
   <rect x="121" y="173" width="25" height="20" fill="#231F20" id="svg_17"/>
  </g>
  <g id="svg_18">
   <rect x="122" y="204" width="25" height="20" fill="#231F20" id="svg_19"/>
  </g>
  <g id="svg_38">
   <rect x="156" y="142" width="131" height="20" fill="#231F20" id="svg_37"/>
  </g>
  <g id="svg_40">
   <rect x="297" y="142" width="80" height="20" fill="#231F20" id="svg_39"/>
  </g>
  <g id="svg_42">
   <rect x="156" y="174" width="131" height="20" fill="#231F20" id="svg_41"/>
  </g>
  <g id="svg_44">
   <rect x="297" y="174" width="80" height="20" fill="#231F20" id="svg_43"/>
  </g>
  <g id="svg_46">
   <rect x="157" y="204" width="131" height="20" fill="#231F20" id="svg_45"/>
  </g>
  <g id="svg_48">
   <rect x="298" y="204" width="80" height="20" fill="#231F20" id="svg_47"/>
  </g>
  <g id="svg_50">
   <rect x="298" y="233" width="80" height="20" fill="#231F20" id="svg_49"/>
  </g>
  <g id="svg_52">
   <rect x="298" y="264" width="80" height="20" fill="#231F20" id="svg_51"/>
  </g>
  <g id="svg_20"/>
  <g id="svg_21"/>
  <g id="svg_22"/>
  <g id="svg_23"/>
  <g id="svg_24"/>
  <g id="svg_25"/>
  <g id="svg_26"/>
  <g id="svg_27"/>
  <g id="svg_28"/>
  <g id="svg_29"/>
  <g id="svg_30"/>
  <g id="svg_31"/>
  <g id="svg_32"/>
  <g id="svg_33"/>
  <g id="svg_34"/>
  <g id="svg_1">
   <g id="svg_4">
    <g id="svg_5">
     <rect id="svg_11" x="134.19999" y="306.20001" width="17.2" height="17.2"/>
    </g>
   </g>
   <g id="svg_12">
    <g id="svg_13">
     <path id="svg_35" d="m237.39999,289.00001l0,8.6l-8.6,0l0,8.6l8.6,0l0,34.4l8.6,0l0,8.6l-8.6,0l0,8.6l8.6,0l8.6,0l0,-17.2l25.8,0l0,8.6l8.6,0l0,-8.6l0,-51.6l-51.6,0zm43,43l-34.4,0l0,-34.4l34.4,0l0,34.4z"/>
    </g>
   </g>
   <g id="svg_36">
    <g id="svg_54">
     <rect id="svg_55" x="254.59999" y="306.20001" width="17.2" height="17.2"/>
    </g>
   </g>
   <g id="svg_56">
    <g id="svg_57">
     <rect id="svg_58" x="134.19999" y="426.60001" width="17.2" height="17.2"/>
    </g>
   </g>
   <g id="svg_59">
    <g id="svg_60">
     <rect id="svg_61" x="237.39999" y="409.40001" width="8.6" height="8.6"/>
    </g>
   </g>
   <g id="svg_62">
    <g id="svg_63">
     <rect id="svg_64" x="194.39999" y="452.40001" width="8.6" height="8.6"/>
    </g>
   </g>
   <g id="svg_65">
    <g id="svg_66">
     <rect id="svg_67" x="202.99999" y="418.00001" width="8.6" height="8.6"/>
    </g>
   </g>
   <g id="svg_68">
    <g id="svg_69">
     <rect id="svg_70" x="202.99999" y="435.20001" width="8.6" height="8.6"/>
    </g>
   </g>
   <g id="svg_71">
    <g id="svg_72">
     <rect id="svg_73" x="280.39999" y="392.20001" width="8.6" height="8.6"/>
    </g>
   </g>
   <g id="svg_74">
    <g id="svg_75">
     <rect id="svg_76" y="392.20001" width="8.6" height="8.6" x="116.99999"/>
    </g>
   </g>
   <g id="svg_77">
    <g id="svg_78">
     <rect id="svg_79" y="349.20001" width="8.6" height="8.6" x="116.99999"/>
    </g>
   </g>
   <g id="svg_80">
    <g id="svg_81">
     <polygon id="svg_82" points="211.59994339096738,297.59999383105605 211.59994339096738,306.1999776485318 194.40005589377688,306.1999776485318 194.40005589377688,314.800001534888 220.20000734620407,314.800001534888 220.20000734620407,306.1999776485318 220.20000734620407,297.59999383105605 "/>
    </g>
   </g>
   <g id="svg_83">
    <g id="svg_84">
     <path id="svg_85" d="m280.39999,357.80001l0,8.6l-17.2,0l0,8.6l-25.8,0l0,-8.6l-8.6,0l0,8.6l-17.2,0l0,8.6l25.8,0l0,8.6l-17.2,0l-8.6,0l0,-8.6l-8.6,0l0,8.6l-8.6,0l0,-8.6l-8.6,0l0,8.6l-8.6,0l0,8.6l17.2,0l0,8.6l8.6,0l0,-8.6l17.2,0l0,8.6l-8.6,0l0,8.6l8.6,0l0,17.2l8.6,0l0,8.6l8.6,0l0,-8.6l25.8,0l0,-17.2l8.6,0l0,-8.6l-8.6,0l0,-17.2l-17.2,0l0,-8.6l17.2,0l0,8.6l8.6,0l0,-8.6l8.6,0l0,-8.6l8.6,0l0,-8.6l0,-8.6l-8.6,0zm-25.8,43l0,25.8l-25.8,0l0,-25.8l25.8,0z"/>
    </g>
   </g>
   <g id="svg_86">
    <g id="svg_87">
     <polygon id="svg_88" points="228.7999911636798,340.5999930561957 220.20000734620407,340.5999930561957 220.20000734620407,349.1999768736714 211.59994339096738,349.1999768736714 211.59994339096738,357.8000408289081 211.59994339096738,366.4000246463838 220.20000734620407,366.4000246463838 220.20000734620407,357.8000408289081 228.7999911636798,357.8000408289081 228.7999911636798,349.1999768736714 237.4000551189165,349.1999768736714 237.4000551189165,340.5999930561957 "/>
    </g>
   </g>
   <g id="svg_89">
    <g id="svg_90">
     <rect id="svg_91" x="211.59999" y="452.40001" width="17.2" height="8.6"/>
    </g>
   </g>
   <g id="svg_92">
    <g id="svg_93">
     <rect id="svg_94" x="185.79999" y="297.60001" width="8.6" height="8.6"/>
    </g>
   </g>
   <g id="svg_95">
    <g id="svg_96">
     <rect id="svg_97" x="254.59999" y="357.80001" width="8.6" height="8.6"/>
    </g>
   </g>
   <g id="svg_98">
    <g id="svg_99">
     <rect id="svg_100" x="263.19999" y="349.20001" width="8.6" height="8.6"/>
    </g>
   </g>
   <g id="svg_101">
    <g id="svg_102">
     <rect id="svg_103" x="151.39999" y="392.20001" width="8.6" height="8.6"/>
    </g>
   </g>
   <g id="svg_104">
    <g id="svg_105">
     <path id="svg_106" d="m168.59999,452.40001l0,-34.4l8.6,0l0,-8.6l0,-8.6l-8.6,0l0,8.6l-25.8,0l0,-8.6l-8.6,0l-8.6,0l0,8.6l-8.6,0l0,51.6l51.6,0l17.2,0l0,-8.6l-17.2,0zm-8.6,0l-34.4,0l0,-34.4l34.4,0l0,34.4z"/>
    </g>
   </g>
   <g id="svg_107">
    <g id="svg_108">
     <rect id="svg_109" x="168.59999" y="340.60001" width="8.6" height="8.6"/>
    </g>
   </g>
   <g id="svg_110">
    <g id="svg_111">
     <path id="svg_112" d="m177.19999,289.00001l-8.6,0l-51.6,0l0,51.6l8.6,0l0,8.6l8.6,0l0,-8.6l8.6,0l0,8.6l8.6,0l0,-8.6l17.2,0l0,-17.2l8.6,0l0,-8.6l-8.6,0l0,-17.2l8.6,0l8.6,0l0,-8.6l-8.6,0zm-17.2,43l-34.4,0l0,-34.4l34.4,0l0,34.4z"/>
    </g>
   </g>
   <g id="svg_113">
    <g id="svg_114">
     <rect id="svg_115" x="220.19999" y="314.80001" width="8.6" height="8.6"/>
    </g>
   </g>
   <g id="svg_116">
    <g id="svg_117">
     <rect id="svg_118" x="202.99999" width="8.6" height="8.6" y="289.00001"/>
    </g>
   </g>
   <g id="svg_119">
    <g id="svg_120">
     <path id="svg_121" d="m220.19999,340.60001l0,-8.6l-8.6,0l0,-8.6l-8.6,0l0,8.6l-17.2,0l0,-8.6l-8.6,0l0,8.6l0,8.6l8.6,0l0,17.2l-25.8,0l0,-8.6l-8.6,0l0,8.6l-25.8,0l0,8.6l17.2,0l0,8.6l-25.8,0l0,8.6l25.8,0l0,8.6l8.6,0l0,-8.6l8.6,0l0,8.6l8.6,0l0,-8.6l17.2,0l0,-8.6l-8.6,0l0,-8.6l8.6,0l8.6,0l0,8.6l8.6,0l8.6,0l0,-8.6l-8.6,0l0,-8.6l-8.6,0l0,-17.2l25.8,0zm-51.6,34.4l-17.2,0l0,-8.6l17.2,0l0,8.6z"/>
    </g>
   </g>
   <g id="svg_122">
    <g id="svg_123">
     <polygon id="svg_124" points="194.40005589377688,426.6000315753554 194.40005589377688,418.0000076889992 194.40005589377688,409.40002387152344 185.7999919385402,409.40002387152344 185.7999919385402,418.0000076889992 177.20000812106446,418.0000076889992 177.20000812106446,426.6000315753554 185.7999919385402,426.6000315753554 185.7999919385402,435.19997532395064 177.20000812106446,435.19997532395064 177.20000812106446,443.79999921030685 194.40005589377688,443.79999921030685 194.40005589377688,435.19997532395064 202.99999964237213,435.19997532395064 202.99999964237213,426.6000315753554 "/>
    </g>
   </g>
   <g id="svg_125">
    <g id="svg_126">
     <polygon id="svg_127" points="271.7999903888194,443.79999921030685 271.7999903888194,435.19997532395064 263.19992643358273,435.19997532395064 263.19992643358273,443.79999921030685 237.4000551189165,443.79999921030685 237.4000551189165,452.40006316554354 254.59998268498748,452.40006316554354 254.59998268498748,461.0000069141388 263.19992643358273,461.0000069141388 263.19992643358273,452.40006316554354 280.40001427517564,452.40006316554354 280.40001427517564,461.0000069141388 288.99999809265137,461.0000069141388 288.99999809265137,452.40006316554354 288.99999809265137,443.79999921030685 "/>
    </g>
   </g>
   <g id="svg_128">
    <g id="svg_129">
     <polygon id="svg_130" points="280.40001427517564,409.40002387152344 280.40001427517564,418.0000076889992 271.7999903888194,418.0000076889992 271.7999903888194,426.6000315753554 288.99999809265137,426.6000315753554 288.99999809265137,418.0000076889992 288.99999809265137,409.40002387152344 "/>
    </g>
   </g>
   <g id="svg_131"/>
   <g id="svg_132"/>
   <g id="svg_133"/>
   <g id="svg_134"/>
   <g id="svg_135"/>
   <g id="svg_136"/>
   <g id="svg_137"/>
   <g id="svg_138"/>
   <g id="svg_139"/>
   <g id="svg_140"/>
   <g id="svg_141"/>
   <g id="svg_142"/>
   <g id="svg_143"/>
   <g id="svg_144"/>
   <g id="svg_145"/>
  </g>
  <text xml:space="preserve" text-anchor="start" font-family="Noto Sans JP" font-size="64" id="svg_146" y="83" x="268" stroke-width="0" fill="#000000">CFDi</text>
 </g>

</svg>