<?xml version="1.0" encoding="iso-8859-1"?>
<!-- Generator: Adobe Illustrator 19.0.0, SVG Export Plug-In . SVG Version: 6.00 Build 0)  -->
<svg version="1.1" id="Layer_1" xmlns="http://www.w3.org/2000/svg" xmlns:xlink="http://www.w3.org/1999/xlink" x="0px" y="0px"
	 viewBox="0 0 512 512" style="enable-background:new 0 0 512 512;" xml:space="preserve">
<g>
	<g>
		<path d="M501.333,85.333c5.888,0,10.667-4.779,10.667-10.667v-64C512,4.779,507.221,0,501.333,0h-448
			c-3.563,0-6.891,1.771-8.875,4.736l-42.667,64C-0.384,72-0.597,76.224,1.259,79.68c1.856,3.477,5.461,5.653,9.408,5.653H384
			v405.333H213.333V387.776c10.304,12.715,21.952,24.619,32.619,35.093c-12.352,12.459-21.397,22.656-16.661,33.877
			c4.331,10.261,16.96,12.587,34.752,12.587c0.896,0,1.813,0,2.752-0.021c5.845-0.064,21.376-0.256,26.027-11.861
			c4.203-10.475-3.029-20.629-16.853-34.859c13.504-14.699,25.493-31.787,22.571-50.901c-6.101-39.701-47.104-61.952-63.872-69.483
			V288c0-5.888-4.779-10.667-10.667-10.667s-10.667,4.779-10.667,10.667v-21.333c0-17.643-14.357-32-32-32H74.667
			c-17.643,0-32,14.357-32,32v224h-32C4.779,490.667,0,495.445,0,501.333C0,507.221,4.779,512,10.667,512h490.667
			c5.888,0,10.667-4.779,10.667-10.667c0-5.888-4.779-10.667-10.667-10.667h-32V85.333H501.333z M266.539,448
			c-6.933,0.085-11.392-0.235-14.336-0.619c2.347-2.795,5.696-6.272,8.875-9.472c3.563,3.669,6.763,7.168,8.917,9.963
			C269.013,447.936,267.883,447.957,266.539,448z M213.333,330.667c0,5.888,4.779,10.667,10.667,10.667s10.667-4.779,10.667-10.667
			v-4.565c15.68,8.427,39.083,24.704,42.795,48.853c1.536,10.005-6.955,21.867-16.661,32.597
			c-17.28-16.981-37.504-37.547-47.467-58.304V330.667z M170.667,330.667c0,5.888-4.779,10.667-10.667,10.667H96
			c-5.888,0-10.667-4.779-10.667-10.667V288c0-5.888,4.779-10.667,10.667-10.667h64c5.888,0,10.667,4.779,10.667,10.667V330.667z"/>
	</g>
</g>
<g>
</g>
<g>
</g>
<g>
</g>
<g>
</g>
<g>
</g>
<g>
</g>
<g>
</g>
<g>
</g>
<g>
</g>
<g>
</g>
<g>
</g>
<g>
</g>
<g>
</g>
<g>
</g>
<g>
</g>
</svg>
