<?xml version="1.0" encoding="iso-8859-1"?>
<!-- Generator: Adobe Illustrator 17.1.0, SVG Export Plug-In . SVG Version: 6.00 Build 0)  -->
<!DOCTYPE svg PUBLIC "-//W3C//DTD SVG 1.1//EN" "http://www.w3.org/Graphics/SVG/1.1/DTD/svg11.dtd">
<svg version="1.1" id="Capa_1" xmlns="http://www.w3.org/2000/svg" xmlns:xlink="http://www.w3.org/1999/xlink" x="0px" y="0px"
	 viewBox="0 0 465.021 465.021" style="enable-background:new 0 0 465.021 465.021;" xml:space="preserve">
<g>
	<path d="M426.977,38.044C402.444,13.511,369.875,0,335.269,0c-4.143,0-7.5,3.358-7.5,7.5s3.357,7.5,7.5,7.5
		c30.6,0,59.401,11.95,81.102,33.65c21.7,21.7,33.65,50.502,33.65,81.102c0,4.142,3.357,7.5,7.5,7.5s7.5-3.358,7.5-7.5
		C465.021,95.146,451.51,62.577,426.977,38.044z"/>
	<path d="M289.35,140.316c-2.929-2.928-7.677-2.93-10.607,0c-2.929,2.929-2.929,7.678,0,10.606l35.355,35.355
		c1.465,1.465,3.384,2.197,5.304,2.197c1.919,0,3.839-0.732,5.304-2.197c2.929-2.929,2.929-7.678,0-10.606L289.35,140.316z"/>
	<path d="M335.268,39.993c-4.143,0-7.5,3.358-7.5,7.5s3.357,7.5,7.5,7.5c41.223,0,74.76,33.537,74.76,74.759
		c0,4.142,3.357,7.5,7.5,7.5s7.5-3.358,7.5-7.5C425.028,80.259,384.762,39.993,335.268,39.993z"/>
	<path d="M280.628,78.799c-7.659-7.659-17.876-11.876-28.77-11.876s-21.11,4.218-28.769,11.876l-29.987,29.987
		c-0.002,0.002-0.005,0.005-0.007,0.007L11.898,289.991c-15.863,15.863-15.863,41.675,0,57.538l105.595,105.595
		c7.932,7.932,18.35,11.897,28.768,11.897c10.419,0,20.838-3.966,28.77-11.898l181.183-181.182c0.006-0.006,0.013-0.013,0.02-0.02
		c0.006-0.006,0.013-0.013,0.019-0.02l29.972-29.971c15.862-15.863,15.862-41.674,0-57.538L280.628,78.799z M164.424,442.517
		c-4.826,4.825-11.276,7.483-18.163,7.483s-13.337-2.657-18.162-7.482L22.504,336.922c-4.825-4.826-7.483-11.276-7.483-18.163
		s2.658-13.337,7.483-18.163l24.687-24.687l141.92,141.92L164.424,442.517z M199.718,407.224l-141.92-141.92l140.605-140.605
		l141.92,141.92L199.718,407.224z M375.616,231.325l-24.687,24.687l-141.92-141.92l24.687-24.687
		c4.825-4.826,11.275-7.483,18.162-7.483s13.337,2.658,18.162,7.483L375.616,195C385.631,205.016,385.631,221.311,375.616,231.325z"
		/>
	<path d="M370.034,129.752c0,4.142,3.357,7.5,7.5,7.5s7.5-3.358,7.5-7.5c0-27.441-22.324-49.766-49.765-49.766
		c-4.143,0-7.5,3.358-7.5,7.5s3.357,7.5,7.5,7.5C354.438,94.987,370.034,110.583,370.034,129.752z"/>
</g>
<g>
</g>
<g>
</g>
<g>
</g>
<g>
</g>
<g>
</g>
<g>
</g>
<g>
</g>
<g>
</g>
<g>
</g>
<g>
</g>
<g>
</g>
<g>
</g>
<g>
</g>
<g>
</g>
<g>
</g>
</svg>
